<svg xmlns="http://www.w3.org/2000/svg" version="1.1" xmlns:xlink="http://www.w3.org/1999/xlink" width="1000" height="1000"><style>
    #light-icon {
      display: inline;
    }
    #dark-icon {
      display: none;
    }

    @media (prefers-color-scheme: dark) {
      #light-icon {
        display: none;
      }
      #dark-icon {
        display: inline;
      }
    }
  </style><g id="light-icon"><svg xmlns="http://www.w3.org/2000/svg" version="1.1" xmlns:xlink="http://www.w3.org/1999/xlink" width="1000" height="1000"><g><g transform="matrix(4,0,0,4,0,0)"><svg xmlns="http://www.w3.org/2000/svg" version="1.1" xmlns:xlink="http://www.w3.org/1999/xlink" width="250" height="250"><svg xmlns="http://www.w3.org/2000/svg" viewBox="0 0 250 250">
  <defs>
    <style>
      .uuid-1658c71e-6ec7-4b7c-8c53-f80c9ee89238 {
        fill: #191919;
      }

      .uuid-f53d1e8f-1b08-42dc-921f-905ff96f436b {
        fill: #e5e5e5;
      }
    </style>
  </defs>
  <g id="uuid-c4e1d63a-1571-4708-be5d-423034267e71" data-name="icon">
    <g id="uuid-f51fef85-3dd1-4d49-a605-278016c90476" data-name="body">
      <path class="uuid-f53d1e8f-1b08-42dc-921f-905ff96f436b" d="M128.06,205.84c-1.89,0-3.76-.09-5.58-.29-12.81-1.37-22.09-6.51-26.77-16.85-.53-1.53-.86-3.05-1-4.55-7.08,2.43-14.33,3.2-21.57,2.29-7.45-.89-17.83-3.44-24.98-10.46-5.51-5.22-7.44-14.63-4.29-20.97,1.79-3.9,4.92-7.43,9.85-11.11-11.94-5.47-18.3-15.21-17.05-26.2l.03-.21c2.85-17.28,20.47-26.98,35.89-28.82-.75-1.95-1.13-3.85-1.13-5.67-.36-12.32,5.14-22.47,15.89-29.35,20.02-12.79,52.92-11.67,71.08-2.6,5.64,2.68,19.01,10.47,21.19,24.72.93,5.63-.29,11.79-3.37,17.03,13.7.93,25.16,5.97,33.01,18.19,4.39,6.83,5.57,18.12,2.5,25.89-4.26,9.07-11.22,16.22-22.76,17.06,2.56,13.73-1.8,22.76-8.8,30.65-11.53,12.99-29.14,21.25-52.16,21.25Z"></path>
      <path class="uuid-1658c71e-6ec7-4b7c-8c53-f80c9ee89238" d="M92.42,104.18c-8.35,0-16.33-7.22-19.52-14.77l-.3-.7.76-.08c1.43-.15,2.92-.25,4.43-.29h1.11c6.53.03,13.28.05,19.1,2.97,2.93,1.63,4.29,4.08,3.75,6.71-.64,3.14-3.75,5.63-7.58,6.05-.58.07-1.16.11-1.74.11Z"></path>
      <path class="uuid-1658c71e-6ec7-4b7c-8c53-f80c9ee89238" d="M94.7,184.16l-.04-.55c-.57-8.49,5.72-17.68,14.62-21.37,4.53-1.79,7.76-1.69,9.62.28,1.91,2.33.14,5.74-1.94,7.95-4.54,4.55-10.37,8.44-17.85,11.92-1.25.58-2.55,1.11-3.88,1.58l-.52.18Z"></path>
      <path class="uuid-1658c71e-6ec7-4b7c-8c53-f80c9ee89238" d="M73.12,148.2c-6.12,0-12.57-1.32-18.48-3.91l-.9-.39.8-.57c6.71-4.84,14.94-8.08,23.17-9.13,6.34-.86,10.52-.5,12.77,1.11,1.98,1.54,2.09,3.22,1.84,4.37-.74,3.31-5.38,6.3-8.38,6.99-3.35,1.03-7.02,1.54-10.81,1.54Z"></path>
    </g>
    <g id="uuid-25fc4590-4f02-4802-b356-758333279494" data-name="emotion">
      <path class="uuid-1658c71e-6ec7-4b7c-8c53-f80c9ee89238" d="M148.82,138.56c-6.67,0-12.09-6.93-12.09-15.45s5.42-15.45,12.09-15.45c6.67,0,12.09,6.93,12.09,15.45s-5.42,15.45-12.09,15.45Z"></path>
      <path class="uuid-1658c71e-6ec7-4b7c-8c53-f80c9ee89238" d="M180.04,138.56c-6.68,0-12.12-6.93-12.12-15.45s5.44-15.45,12.12-15.45c6.68,0,12.12,6.93,12.12,15.45s-5.44,15.45-12.12,15.45Z"></path>
      <path class="uuid-1658c71e-6ec7-4b7c-8c53-f80c9ee89238" d="M164.68,146.35c-5.2,0-6.24-.84-6.24-2.18s1.04-2.18,6.24-2.18c5.2,0,6.24.84,6.24,2.18s-1.04,2.18-6.24,2.18Z"></path>
    </g>
  </g>
</svg></svg></g></g></svg></g><g id="dark-icon"><svg xmlns="http://www.w3.org/2000/svg" version="1.1" xmlns:xlink="http://www.w3.org/1999/xlink" width="1000" height="1000"><g><g transform="matrix(5.650355972426263,0,0,5.650355972426263,0,43.19697140919868)"><svg xmlns="http://www.w3.org/2000/svg" version="1.1" xmlns:xlink="http://www.w3.org/1999/xlink" width="176.98" height="161.69"><svg id="uuid-5f467f26-27a8-415d-9642-d1f46a86043b" data-name="Layer 2" xmlns="http://www.w3.org/2000/svg" viewBox="0 0 176.98 161.69">
  <defs>
    <style>
      .uuid-bef4c826-833e-438a-94e7-79db7c789f09 {
        fill: #e5e5e5;
      }
    </style>
  </defs>
  <g id="uuid-f872704e-5eb6-47b0-9132-42129e75573d" data-name="icon">
    <g id="uuid-9a749410-7b0d-463e-afc1-65faa98079e8" data-name="emotion">
      <path class="uuid-bef4c826-833e-438a-94e7-79db7c789f09" d="M91.55,161.69c-1.89,0-3.76-.09-5.58-.29-12.81-1.37-22.09-6.51-26.77-16.85-.53-1.53-.86-3.05-1-4.55-7.08,2.43-14.33,3.2-21.57,2.29-7.45-.89-17.83-3.44-24.98-10.46-5.51-5.22-7.44-14.63-4.29-20.97,1.79-3.9,4.92-7.43,9.85-11.11C5.26,94.28-1.1,84.54.16,73.55l.03-.21c2.85-17.28,20.47-26.98,35.89-28.82-.75-1.95-1.13-3.85-1.13-5.67-.36-12.32,5.14-22.47,15.89-29.35,20.02-12.79,52.92-11.67,71.08-2.6,5.64,2.68,19.01,10.47,21.19,24.72.93,5.63-.29,11.79-3.37,17.03,13.7.93,25.16,5.97,33.01,18.19,4.39,6.83,5.57,18.12,2.5,25.89-4.26,9.07-11.22,16.22-22.76,17.06,2.56,13.73-1.8,22.76-8.8,30.65-11.53,12.99-29.14,21.25-52.16,21.25ZM57.65,59.93c3.82-.42,6.94-2.9,7.58-6.05.54-2.64-.82-5.08-3.75-6.71-5.82-2.92-12.57-2.94-19.1-2.97h-1.11c-1.51.03-3,.13-4.43.28l-.76.08.3.7c3.19,7.55,11.17,14.77,19.52,14.77.58,0,1.16-.03,1.74-.11ZM58.72,139.82c1.33-.47,2.63-1,3.88-1.58,7.48-3.48,13.32-7.37,17.85-11.92,2.09-2.21,3.86-5.62,1.94-7.95-1.86-1.98-5.09-2.07-9.62-.28-8.9,3.69-15.18,12.88-14.62,21.37l.04.55.52-.18ZM47.42,102.51c3-.69,7.65-3.68,8.38-6.99.25-1.14.14-2.82-1.84-4.37-2.26-1.61-6.44-1.97-12.77-1.11-8.23,1.05-16.46,4.29-23.17,9.13l-.8.57.9.39c5.92,2.58,12.36,3.91,18.48,3.91,3.79,0,7.47-.51,10.81-1.54ZM124.4,78.96c0-8.52-5.42-15.45-12.09-15.45-6.67,0-12.09,6.93-12.09,15.45s5.42,15.45,12.09,15.45c6.67,0,12.09-6.93,12.09-15.45ZM155.64,78.96c0-8.52-5.44-15.45-12.12-15.45-6.68,0-12.12,6.93-12.12,15.45s5.44,15.45,12.12,15.45c6.68,0,12.12-6.93,12.12-15.45ZM134.41,100.02c0-1.35-1.04-2.18-6.24-2.18-5.2,0-6.24.84-6.24,2.18s1.04,2.18,6.24,2.18c5.2,0,6.24-.84,6.24-2.18Z"></path>
    </g>
  </g>
</svg></svg></g></g></svg></g></svg>